<mxfile host="app.diagrams.net" agent="Mozilla/5.0 (Windows NT 10.0; Win64; x64) AppleWebKit/537.36 (KHTML, like Gecko) Chrome/135.0.0.0 Safari/537.36 Edg/135.0.0.0" version="26.2.12">
  <diagram name="Page-1" id="5DCGdDdSmtKP3t5t1Pew">
    <mxGraphModel dx="1183" dy="655" grid="1" gridSize="10" guides="1" tooltips="1" connect="1" arrows="1" fold="1" page="1" pageScale="1" pageWidth="850" pageHeight="1100" math="0" shadow="0">
      <root>
        <mxCell id="0" />
        <mxCell id="1" parent="0" />
        <mxCell id="DLnQaiiaAOJsK_edlVh9-28" value="" style="rounded=0;whiteSpace=wrap;html=1;fillColor=#ffe6cc;strokeColor=#d79b00;opacity=70;" vertex="1" parent="1">
          <mxGeometry x="350" y="330" width="480" height="230" as="geometry" />
        </mxCell>
        <mxCell id="DLnQaiiaAOJsK_edlVh9-27" value="" style="rounded=0;whiteSpace=wrap;html=1;fillColor=#e1d5e7;strokeColor=#9673a6;opacity=70;" vertex="1" parent="1">
          <mxGeometry x="350" y="90" width="480" height="230" as="geometry" />
        </mxCell>
        <mxCell id="DLnQaiiaAOJsK_edlVh9-3" value="Card T&amp;amp;C Data :ChromaDB" style="shape=cylinder3;whiteSpace=wrap;html=1;boundedLbl=1;backgroundOutline=1;size=15;" vertex="1" parent="1">
          <mxGeometry x="710" y="200" width="95" height="110" as="geometry" />
        </mxCell>
        <mxCell id="DLnQaiiaAOJsK_edlVh9-7" style="edgeStyle=orthogonalEdgeStyle;rounded=0;orthogonalLoop=1;jettySize=auto;html=1;entryX=1;entryY=0.5;entryDx=0;entryDy=0;" edge="1" parent="1" source="DLnQaiiaAOJsK_edlVh9-4" target="DLnQaiiaAOJsK_edlVh9-6">
          <mxGeometry relative="1" as="geometry" />
        </mxCell>
        <mxCell id="DLnQaiiaAOJsK_edlVh9-9" style="edgeStyle=orthogonalEdgeStyle;rounded=0;orthogonalLoop=1;jettySize=auto;html=1;entryX=0.5;entryY=1;entryDx=0;entryDy=0;" edge="1" parent="1" source="DLnQaiiaAOJsK_edlVh9-4" target="DLnQaiiaAOJsK_edlVh9-8">
          <mxGeometry relative="1" as="geometry" />
        </mxCell>
        <mxCell id="DLnQaiiaAOJsK_edlVh9-4" value="VectorDB" style="rounded=0;whiteSpace=wrap;html=1;" vertex="1" parent="1">
          <mxGeometry x="545" y="225" width="120" height="60" as="geometry" />
        </mxCell>
        <mxCell id="DLnQaiiaAOJsK_edlVh9-5" style="edgeStyle=orthogonalEdgeStyle;rounded=0;orthogonalLoop=1;jettySize=auto;html=1;entryX=0;entryY=0.5;entryDx=0;entryDy=0;entryPerimeter=0;startArrow=classic;startFill=1;" edge="1" parent="1" source="DLnQaiiaAOJsK_edlVh9-4" target="DLnQaiiaAOJsK_edlVh9-3">
          <mxGeometry relative="1" as="geometry" />
        </mxCell>
        <mxCell id="DLnQaiiaAOJsK_edlVh9-6" value="Card Data Server :MCP Server" style="rounded=0;whiteSpace=wrap;html=1;" vertex="1" parent="1">
          <mxGeometry x="380" y="225" width="120" height="60" as="geometry" />
        </mxCell>
        <mxCell id="DLnQaiiaAOJsK_edlVh9-10" style="edgeStyle=orthogonalEdgeStyle;rounded=0;orthogonalLoop=1;jettySize=auto;html=1;entryX=1;entryY=0.25;entryDx=0;entryDy=0;" edge="1" parent="1" source="DLnQaiiaAOJsK_edlVh9-8" target="DLnQaiiaAOJsK_edlVh9-6">
          <mxGeometry relative="1" as="geometry" />
        </mxCell>
        <mxCell id="DLnQaiiaAOJsK_edlVh9-8" value="Suggested Questions Generator" style="rounded=0;whiteSpace=wrap;html=1;" vertex="1" parent="1">
          <mxGeometry x="545" y="110" width="120" height="60" as="geometry" />
        </mxCell>
        <mxCell id="DLnQaiiaAOJsK_edlVh9-31" style="edgeStyle=orthogonalEdgeStyle;rounded=0;orthogonalLoop=1;jettySize=auto;html=1;exitX=0.5;exitY=1;exitDx=0;exitDy=0;exitPerimeter=0;entryX=0;entryY=0.5;entryDx=0;entryDy=0;" edge="1" parent="1" source="DLnQaiiaAOJsK_edlVh9-12" target="DLnQaiiaAOJsK_edlVh9-13">
          <mxGeometry relative="1" as="geometry" />
        </mxCell>
        <mxCell id="DLnQaiiaAOJsK_edlVh9-12" value="Submitted Bank Statement&amp;nbsp;&lt;div&gt;:PDF&lt;/div&gt;" style="shape=card;whiteSpace=wrap;html=1;" vertex="1" parent="1">
          <mxGeometry x="240" y="360" width="70" height="102" as="geometry" />
        </mxCell>
        <mxCell id="DLnQaiiaAOJsK_edlVh9-16" style="edgeStyle=orthogonalEdgeStyle;rounded=0;orthogonalLoop=1;jettySize=auto;html=1;exitX=0.25;exitY=0;exitDx=0;exitDy=0;entryX=0.25;entryY=1;entryDx=0;entryDy=0;" edge="1" parent="1" source="DLnQaiiaAOJsK_edlVh9-13" target="DLnQaiiaAOJsK_edlVh9-15">
          <mxGeometry relative="1" as="geometry" />
        </mxCell>
        <mxCell id="DLnQaiiaAOJsK_edlVh9-32" style="edgeStyle=orthogonalEdgeStyle;rounded=0;orthogonalLoop=1;jettySize=auto;html=1;exitX=1;exitY=0.5;exitDx=0;exitDy=0;" edge="1" parent="1" source="DLnQaiiaAOJsK_edlVh9-13" target="DLnQaiiaAOJsK_edlVh9-18">
          <mxGeometry relative="1" as="geometry" />
        </mxCell>
        <mxCell id="DLnQaiiaAOJsK_edlVh9-13" value="PDFStatementParser" style="rounded=0;whiteSpace=wrap;html=1;" vertex="1" parent="1">
          <mxGeometry x="430" y="470.5" width="120" height="60" as="geometry" />
        </mxCell>
        <mxCell id="DLnQaiiaAOJsK_edlVh9-17" style="edgeStyle=orthogonalEdgeStyle;rounded=0;orthogonalLoop=1;jettySize=auto;html=1;exitX=0.75;exitY=1;exitDx=0;exitDy=0;entryX=0.75;entryY=0;entryDx=0;entryDy=0;" edge="1" parent="1" source="DLnQaiiaAOJsK_edlVh9-15" target="DLnQaiiaAOJsK_edlVh9-13">
          <mxGeometry relative="1" as="geometry" />
        </mxCell>
        <mxCell id="DLnQaiiaAOJsK_edlVh9-15" value="MerchantCategorizer" style="rounded=0;whiteSpace=wrap;html=1;" vertex="1" parent="1">
          <mxGeometry x="430" y="365.5" width="120" height="60" as="geometry" />
        </mxCell>
        <mxCell id="DLnQaiiaAOJsK_edlVh9-18" value="Cleaned Transactions" style="shape=internalStorage;whiteSpace=wrap;html=1;backgroundOutline=1;" vertex="1" parent="1">
          <mxGeometry x="600" y="453" width="110" height="95" as="geometry" />
        </mxCell>
        <mxCell id="DLnQaiiaAOJsK_edlVh9-21" style="edgeStyle=orthogonalEdgeStyle;rounded=0;orthogonalLoop=1;jettySize=auto;html=1;dashed=1;dashPattern=8 8;startArrow=classic;startFill=1;" edge="1" parent="1" source="DLnQaiiaAOJsK_edlVh9-20" target="DLnQaiiaAOJsK_edlVh9-6">
          <mxGeometry relative="1" as="geometry" />
        </mxCell>
        <mxCell id="DLnQaiiaAOJsK_edlVh9-20" value="Pak&#39;s&amp;nbsp;&lt;div&gt;Magic Frontend&lt;/div&gt;" style="ellipse;shape=cloud;whiteSpace=wrap;html=1;" vertex="1" parent="1">
          <mxGeometry x="150" y="207.5" width="160" height="95" as="geometry" />
        </mxCell>
        <mxCell id="DLnQaiiaAOJsK_edlVh9-23" style="edgeStyle=orthogonalEdgeStyle;rounded=0;orthogonalLoop=1;jettySize=auto;html=1;entryX=1;entryY=0.5;entryDx=0;entryDy=0;" edge="1" parent="1" source="DLnQaiiaAOJsK_edlVh9-22" target="DLnQaiiaAOJsK_edlVh9-15">
          <mxGeometry relative="1" as="geometry" />
        </mxCell>
        <mxCell id="DLnQaiiaAOJsK_edlVh9-22" value="Ruyang&#39;s&amp;nbsp;&lt;div&gt;Magic Classifier&lt;/div&gt;" style="ellipse;shape=cloud;whiteSpace=wrap;html=1;" vertex="1" parent="1">
          <mxGeometry x="667.5" y="348" width="160" height="95" as="geometry" />
        </mxCell>
        <mxCell id="DLnQaiiaAOJsK_edlVh9-30" style="edgeStyle=orthogonalEdgeStyle;rounded=0;orthogonalLoop=1;jettySize=auto;html=1;exitX=0.55;exitY=0.95;exitDx=0;exitDy=0;exitPerimeter=0;entryX=0.5;entryY=0;entryDx=0;entryDy=0;entryPerimeter=0;" edge="1" parent="1" source="DLnQaiiaAOJsK_edlVh9-20" target="DLnQaiiaAOJsK_edlVh9-12">
          <mxGeometry relative="1" as="geometry" />
        </mxCell>
        <mxCell id="DLnQaiiaAOJsK_edlVh9-33" style="edgeStyle=orthogonalEdgeStyle;rounded=0;orthogonalLoop=1;jettySize=auto;html=1;exitX=0.5;exitY=1;exitDx=0;exitDy=0;entryX=0.31;entryY=0.8;entryDx=0;entryDy=0;entryPerimeter=0;" edge="1" parent="1" source="DLnQaiiaAOJsK_edlVh9-18" target="DLnQaiiaAOJsK_edlVh9-20">
          <mxGeometry relative="1" as="geometry">
            <Array as="points">
              <mxPoint x="655" y="580" />
              <mxPoint x="200" y="580" />
            </Array>
          </mxGeometry>
        </mxCell>
        <mxCell id="DLnQaiiaAOJsK_edlVh9-34" value="Statement Processing" style="text;html=1;align=center;verticalAlign=middle;whiteSpace=wrap;rounded=0;fontStyle=1" vertex="1" parent="1">
          <mxGeometry x="350" y="330" width="140" height="30" as="geometry" />
        </mxCell>
        <mxCell id="DLnQaiiaAOJsK_edlVh9-35" value="Model Context Protocol" style="text;html=1;align=center;verticalAlign=middle;whiteSpace=wrap;rounded=0;fontStyle=1" vertex="1" parent="1">
          <mxGeometry x="350" y="90" width="150" height="30" as="geometry" />
        </mxCell>
      </root>
    </mxGraphModel>
  </diagram>
</mxfile>
